<?xml version="1.0" encoding="UTF-8"?>
<svg id="Layer_2" data-name="Layer 2" xmlns="http://www.w3.org/2000/svg" viewBox="0 0 1692 183.74">
  <defs>
    <style>
      .cls-1 {
        fill: #fff;
      }
    </style>
  </defs>
  <g id="Layer_1-2" data-name="Layer 1">
    <g>
      <path class="cls-1" d="M36,46.08v16c0,5.51,4.46,9.99,9.98,10l62.02.14,36,.08,26.02.06c5.51.01,9.98,4.49,9.98,10v88c0,5.53-4.49,10.01-10.02,10l-25.98-.06-36-.08-98.02-.22c-5.51-.01-9.98-4.49-9.98-10v-16c0-5.53,4.49-10.01,10.02-10l97.98.22,25.98.06c5.53.01,10.02-4.47,10.02-10v-16c0-5.51-4.46-9.99-9.98-10l-26.02-.06-98.02-.22c-5.51-.01-9.98-4.49-9.98-10V10C0,4.47,4.49-.01,10.02,0l97.98.22,36,.08,26.02.06c5.51.01,9.98,4.49,9.98,10v16c0,5.53-4.49,10.01-10.02,10l-25.98-.06-36-.08-61.98-.14c-5.53-.01-10.02,4.47-10.02,10Z"/>
      <path class="cls-1" d="M360,.78l-72-.16-36-.08-25.98-.06c-5.53-.01-10.02,4.47-10.02,10v160c0,5.51,4.46,9.99,9.98,10l26.02.06,36,.08,72,.16,25.98.06c5.53.01,10.02-4.47,10.02-10V10.84c0-5.51-4.46-9.99-9.98-10l-26.02-.06ZM360,134.76c0,5.53-4.49,10.01-10.02,10l-61.98-.14-26.02-.06c-5.51-.01-9.98-4.49-9.98-10V46.56c0-5.53,4.49-10.01,10.02-10l25.98.06,62.02.14c5.51.01,9.98,4.49,9.98,10v88Z"/>
      <path class="cls-1" d="M612,11.33v16c0,5.53-4.49,10.01-10.02,10l-97.98-.22-25.98-.06c-5.53-.01-10.02,4.47-10.02,10v16c0,5.51,4.46,9.99,9.98,10l26.02.06,62.02.14c5.51.01,9.98,4.49,9.98,10v16c0,5.53-4.49,10.01-10.02,10l-61.98-.14-25.98-.06c-5.53-.01-10.02,4.47-10.02,10v51.95c0,5.53-4.49,10.01-10.03,10l-16-.04c-5.51-.01-9.97-4.49-9.97-10V10.96c0-5.53,4.49-10.01,10.03-10l25.97.06,36,.08,98.02.22c5.51.01,9.98,4.49,9.98,10Z"/>
      <path class="cls-1" d="M756,1.67l-36-.08-61.98-.14c-5.53-.01-10.02,4.47-10.02,10v16c0,5.51,4.46,9.99,9.98,10l52.04.12c5.51.01,9.98,4.49,9.98,10v124.04c0,5.51,4.46,9.99,9.98,10l16,.04c5.53.01,10.02-4.47,10.02-10V47.69c0-5.53,4.49-10.01,10.02-10l51.96.12c5.53.01,10.02-4.47,10.02-10v-16c0-5.51-4.46-9.99-9.98-10l-62.02-.14Z"/>
      <path class="cls-1" d="M1476,157.25v16c0,5.53-4.49,10.01-10.03,10l-25.97-.06-36-.08-36-.08-62.02-.14c-5.51-.01-9.98-4.49-9.98-10V12.89c0-5.53,4.49-10.01,10.02-10l16,.04c5.51.01,9.98,4.49,9.98,10v124.04c0,5.51,4.46,9.99,9.98,10l26.02.06,36,.08,36,.08,26.03.07c5.51.01,9.97,4.49,9.97,10Z"/>
      <path class="cls-1" d="M1656,3.68l-36-.08-97.98-.22c-5.53-.01-10.02,4.47-10.02,10v160c0,5.51,4.46,9.99,9.98,10l16,.04c5.53.01,10.02-4.47,10.02-10v-51.96c0-5.53,4.49-10.01,10.02-10l61.98.14,26.02.06c5.51.01,9.98,4.49,9.98,10v52.04c0,5.51,4.46,9.99,9.98,10l16,.04c5.53.01,10.02-4.47,10.02-10V13.74c0-5.51-4.46-9.99-9.98-10l-26.02-.06ZM1557.98,75.46c-5.51-.01-9.98-4.49-9.98-10v-16c0-5.53,4.49-10.01,10.02-10l61.98.14,26.02.06c5.51.01,9.98,4.49,9.98,10v16c0,5.53-4.49,10.01-10.02,10"/>
      <path class="cls-1" d="M1152,2.55l-36-.08-25.98-.06c-5.53-.01-10.02,4.47-10.02,10v160c0,5.51,4.46,9.99,9.98,10l16,.04c5.53.01,10.02-4.47,10.02-10v-51.96c0-5.53,4.49-10.01,10.02-10l25.98.06,62.02.14c5.51.01,9.98,4.49,9.98,10v52.04c0,5.51,4.46,9.99,9.98,10l16,.04c5.53.01,10.02-4.47,10.02-10V12.77c0-5.51-4.46-9.99-9.98-10l-98.02-.22ZM1224,64.69c0,5.53-4.49,10.01-10.02,10l-61.98-.14-26.02-.06c-5.51-.01-9.98-4.49-9.98-10v-16c0-5.53,4.49-10.01,10.02-10l25.98.06,62.02.14c5.51.01,9.98,4.49,9.98,10v16Z"/>
      <g>
        <path class="cls-1" d="M936,156.05v16c0,5.53-4.49,10.01-10.02,10l-25.98-.06-36-.08V1.91l36,.08v134.02c0,5.51,4.46,9.99,9.98,10l16.04.04c5.51.01,9.98,4.49,9.98,10Z"/>
        <path class="cls-1" d="M972,120.13v16c0,5.53-4.49,10.01-10.02,10l-16-.04c-5.51-.01-9.98-4.49-9.98-10v-16c0-5.53,4.49-10.01,10.02-10l16,.04c5.51.01,9.98,4.49,9.98,10Z"/>
        <path class="cls-1" d="M1044,2.31v180l-36-.08-26.02-.06c-5.51-.01-9.98-4.49-9.98-10v-16c0-5.53,4.49-10.01,10.02-10l25.98.06V2.23l36,.08Z"/>
      </g>
    </g>
  </g>
</svg>